/vscmnt/brussel_pixiu_data/_data_brussel/112/vsc11236/PredSimResults/SUBJ04mtu3D/weighted-expIG/worker_01.mot
version=1
nRows=4
nColumns=50
inDegrees=yes
endheader
                time	         pelvis_tilt	         pelvis_list	     pelvis_rotation	           pelvis_tx	           pelvis_ty	           pelvis_tz	       hip_flexion_r	     hip_adduction_r	      hip_rotation_r	        knee_angle_r	       ankle_angle_r	         mtp_angle_r	       hip_flexion_l	     hip_adduction_l	      hip_rotation_l	        knee_angle_l	       ankle_angle_l	         mtp_angle_l	    lumbar_extension	      lumbar_bending	     lumbar_rotation	 ercspn_r/activation	 intobl_r/activation	 extobl_r/activation	    abd_r/activation	    add_r/activation	hamstrings_r/activation	bifemsh_r/activation	glut_max_r/activation	iliopsoas_r/activation	rect_fem_r/activation	  vasti_r/activation	gastroc_r/activation	 soleus_r/activation	tib_ant_r/activation	 ercspn_l/activation	 intobl_l/activation	 extobl_l/activation	    abd_l/activation	    add_l/activation	hamstrings_l/activation	bifemsh_l/activation	glut_max_l/activation	iliopsoas_l/activation	rect_fem_l/activation	  vasti_l/activation	gastroc_l/activation	 soleus_l/activation	tib_ant_l/activation	
          1.36964649	         -5.24789539	         -4.75918924	         12.17056953	          1.23268184	          0.88331576	         -0.01985818	         24.13724040	          0.52790076	         -4.58496726	          2.19566244	          5.11515001	          0.22506137	         -8.97516624	         -4.48174320	         14.62921711	         -8.98845361	         12.12364426	         24.08974568	         -3.17374877	          1.88175478	         -1.16554731	          0.08343037	          0.16105700	          0.01853044	          0.02206269	          0.11760831	          0.01870662	          0.00999999	          0.00999999	          0.05339364	          0.01228273	          0.02554496	          0.00999999	          0.00999999	          0.26116747	          0.04322678	          0.00999999	          0.00999999	          0.07815444	          0.00999999	          0.01654174	          0.12529499	          0.06362946	          0.30226799	          0.00999999	          0.00999999	          0.28691060	          0.27168358	          0.01236731	
          1.38334295	         -5.36053180	         -4.63944481	         12.01697207	          1.24766913	          0.88152419	         -0.01878261	         23.70434713	          0.79638799	         -3.34411786	          1.55681097	          4.78764758	          0.21028130	         -9.18241336	         -4.32794662	         13.79026703	        -10.34280215	         11.83600710	         25.76300474	         -2.88723515	          2.16277416	         -1.42023521	          0.06952590	          0.17256178	          0.01508657	          0.01796234	          0.10508532	          0.02373134	          0.01000008	          0.01229133	          0.04347045	          0.00999999	          0.02079743	          0.01574320	          0.01452203	          0.28393760	          0.06303939	          0.00999999	          0.00999999	          0.06362946	          0.02431287	          0.01368975	          0.10200895	          0.05180394	          0.26919932	          0.00999999	          0.00999999	          0.26278315	          0.26327583	          0.01006885	
          1.39703942	         -5.45733242	         -4.52054052	         11.78956579	          1.26295294	          0.87997970	         -0.01760867	         23.13277231	          1.07354010	         -2.14655973	          1.11278477	          4.28819252	          0.20781864	         -9.30792193	         -4.15518324	         12.91082412	        -11.90966858	         11.40266168	         27.46761449	         -2.59184106	          2.46937001	         -1.66705123	          0.06914287	          0.16588361	          0.01228273	          0.03985006	          0.08555525	          0.02829770	          0.05546116	          0.02410121	          0.03539148	          0.00999999	          0.01693224	          0.01281733	          0.01182311	          0.31638729	          0.08821838	          0.00999999	          0.00999999	          0.05180395	          0.03110695	          0.01158258	          0.08305062	          0.04217620	          0.23129253	          0.01000000	          0.00999999	          0.23260952	          0.24640828	          0.00999999	
          1.41073588	         -5.53870464	         -4.40108682	         11.48366169	          1.27835530	          0.87888299	         -0.01633616	         22.48069346	          1.36996802	         -1.02516461	          0.79312248	          3.76957231	          0.19062213	         -9.30043085	         -3.95359662	         11.97816195	        -13.74315750	         10.76476695	         29.17925943	         -2.30432985	          2.80068579	         -1.90432900	          0.06822721	          0.14059959	          0.00999999	          0.06236188	          0.06965484	          0.03065481	          0.04515372	          0.03420940	          0.02881398	          0.00999999	          0.01575418	          0.01043523	          0.00999999	          0.33988284	          0.10980983	          0.00999999	          0.00999999	          0.04217620	          0.03250489	          0.01123482	          0.06761569	          0.03433776	          0.19647573	          0.01000000	          0.00999999	          0.18937911	          0.22285282	          0.00999999	
